# xmcd
#
# Track frame offsets: 
#        150
#        15937
#        38700
#        52287
#        65425
#        81812
#        106712
#        118525
#        131587
#        148875
#
# Disc length: 2127 seconds
#
# Revision: 3
# Processed by: cddbd v1.5.1PL0 Copyright (c) Steve Scherf et al.
# Submitted via: ExactAudioCopy v0.95a5
#
DISCID=83084d0a
DTITLE=Hound Dog Taylor and the HouseRockers - Genuine House Rocking M
DTITLE=usic
DYEAR=1982
DGENRE=Blues
TTITLE0=Ain't Got Nobody
TTITLE1=Gonna Send You Back To Georgia
TTITLE2=Fender Bender
TTITLE3=My Baby's Coming Home
TTITLE4=Blue Guitar
TTITLE5=The Sun Is Shining
TTITLE6=Phillips Goes Bananas
TTITLE7=What'd I Say
TTITLE8=Kansas City
TTITLE9=Crossroads
EXTD=
EXTT0=
EXTT1=
EXTT2=
EXTT3=
EXTT4=
EXTT5=
EXTT6=
EXTT7=
EXTT8=
EXTT9=
PLAYORDER=
